<?xml version="1.0" standalone="no"?>
<!DOCTYPE svg PUBLIC "-//W3C//DTD SVG 20010904//EN"
 "http://www.w3.org/TR/2001/REC-SVG-20010904/DTD/svg10.dtd">
<svg version="1.0" xmlns="http://www.w3.org/2000/svg"
 width="260.000000pt" height="260.000000pt" viewBox="0 0 260.000000 260.000000"
 preserveAspectRatio="xMidYMid meet">
<metadata>
Created by potrace 1.14, written by Peter Selinger 2001-2017
</metadata>
<g transform="translate(0.000000,260.000000) scale(0.100000,-0.100000)"
fill="#000000" stroke="none">
<path d="M216 1119 c-17 -20 -26 -42 -26 -65 0 -42 25 -94 45 -94 20 0 19 7
-5 32 -27 30 -27 97 1 132 29 36 16 33 -15 -5z"/>
<path d="M275 1114 c-24 -22 -27 -30 -20 -62 3 -20 9 -55 11 -77 3 -22 9 -56
15 -75 8 -31 6 -37 -16 -57 -34 -30 -73 -29 -120 2 -20 14 -35 20 -33 13 7
-20 68 -58 93 -58 12 0 39 11 59 25 20 14 44 25 52 25 13 0 13 4 0 28 -30 60
-27 131 7 155 7 4 0 5 -15 1 -25 -5 -28 -3 -28 19 0 14 11 35 25 48 13 13 25
27 25 32 0 15 -28 6 -55 -19z"/>
<path d="M158 1081 c-39 -74 -3 -191 59 -191 12 0 23 -4 23 -9 0 -17 -17 -21
-48 -10 -30 10 -72 74 -72 109 0 10 -3 11 -11 3 -8 -8 -5 -23 12 -54 34 -60
67 -82 111 -74 35 7 36 7 22 33 -8 15 -14 32 -14 39 0 7 -6 16 -12 20 -29 19
-43 50 -48 107 l-5 61 -17 -34z"/>
<path d="M773 1062 c-63 -59 -73 -96 -48 -174 20 -61 71 -114 158 -167 31 -19
54 -38 51 -43 -3 -4 -1 -8 3 -8 5 0 24 -21 42 -46 19 -27 36 -43 41 -38 5 5
21 31 35 58 24 46 26 56 19 124 -5 54 -3 76 6 82 8 5 1 11 -20 19 l-33 11 5
78 6 77 -62 16 c-80 20 -92 15 -53 -21 26 -24 28 -29 14 -30 -11 0 -21 9 -24
19 -3 11 -13 21 -22 24 -10 2 -20 14 -24 26 -4 16 -1 21 14 21 10 0 19 5 19
10 0 6 -17 10 -37 10 -31 0 -47 -9 -90 -48z m130 -53 c19 -24 20 -79 0 -79 -7
0 -13 6 -13 14 0 28 -41 66 -72 66 -27 0 -29 2 -17 16 18 22 78 12 102 -17z
m-44 -38 c21 -21 19 -54 -7 -83 -21 -24 -48 -22 -66 4 -21 29 -20 40 5 72 24
31 42 33 68 7z m151 -130 c0 -5 -12 -6 -27 -3 -24 5 -25 6 -8 12 21 8 35 4 35
-9z"/>
<path d="M1665 1098 c-30 -17 -80 -66 -74 -72 3 -3 26 15 53 39 51 48 53 51
21 33z"/>
<path d="M381 1068 c-56 -28 -36 -37 22 -10 23 11 49 22 57 25 9 3 5 6 -10 6
-14 1 -45 -9 -69 -21z"/>
<path d="M1119 1061 c-37 -37 -38 -83 -4 -133 14 -20 25 -42 25 -49 0 -7 9 -9
26 -5 26 7 26 6 19 -31 -8 -46 -44 -110 -79 -140 -43 -37 -29 -45 19 -11 25
18 45 38 45 45 0 7 4 13 8 13 5 0 28 19 52 43 75 74 97 153 64 223 -12 24 -23
34 -38 33 -17 -1 -17 -2 -3 -6 9 -2 17 -9 17 -14 0 -14 -15 -11 -41 10 -15 11
-35 16 -52 14 -18 -2 -26 0 -22 7 3 5 15 10 26 10 10 0 19 5 19 10 0 22 -53 9
-81 -19z m108 -203 c-3 -8 -6 -5 -6 6 -1 11 2 17 5 13 3 -3 4 -12 1 -19z"/>
<path d="M1720 1058 c-25 -6 -39 -13 -32 -15 9 -4 0 -18 -27 -43 -40 -38 -58
-77 -47 -105 10 -28 25 -15 19 18 -4 26 1 40 22 65 43 51 59 56 113 36 89 -33
132 -83 119 -136 -6 -22 -6 -22 8 -4 19 25 19 40 1 74 -25 47 -63 74 -123 87
-32 7 -49 13 -38 14 11 1 27 6 35 11 18 12 9 11 -50 -2z"/>
<path d="M1805 1050 c27 -12 43 -12 25 0 -8 5 -22 9 -30 9 -10 0 -8 -3 5 -9z"/>
<path d="M1438 1028 c-37 -37 -15 -130 42 -182 35 -32 91 -51 76 -27 -4 5 4 7
16 4 22 -4 23 -4 4 11 -11 9 -25 16 -31 16 -14 0 -48 36 -65 70 -7 13 -16 47
-19 75 -6 48 -7 49 -23 33z"/>
<path d="M453 1023 c15 -2 37 -2 50 0 12 2 0 4 -28 4 -27 0 -38 -2 -22 -4z"/>
<path d="M483 979 c27 -38 21 -53 -12 -28 -30 22 -81 23 -88 2 -4 -12 3 -20
81 -88 42 -37 46 -44 46 -87 0 -58 -23 -109 -59 -131 -23 -14 -24 -17 -6 -17
29 0 72 43 80 81 4 17 4 54 0 83 -5 45 -11 55 -48 83 -24 18 -50 35 -59 38 -9
4 -19 13 -22 21 -10 27 53 17 83 -14 16 -15 32 -27 37 -25 15 4 67 -78 74
-116 l7 -36 11 28 c15 36 4 60 -51 109 -59 51 -42 56 27 8 32 -23 56 -35 54
-28 -4 12 -86 72 -110 81 -7 2 -10 7 -7 10 9 11 79 -13 100 -34 l20 -20 -3 28
c-4 33 -47 58 -122 69 l-49 7 16 -24z"/>
<path d="M1734 961 c-18 -11 -35 -25 -40 -33 -6 -10 -4 -10 9 1 10 7 35 15 57
17 31 3 42 -1 50 -16 17 -32 11 -57 -17 -80 -16 -12 -28 -25 -28 -28 0 -4 -4
-12 -7 -18 -5 -8 2 -11 19 -11 18 0 38 -12 59 -36 23 -25 35 -32 43 -24 19 19
12 32 -31 61 l-43 28 38 -5 c22 -4 35 -2 32 4 -4 5 -1 9 5 9 6 0 8 5 5 10 -4
6 -11 8 -16 5 -5 -4 -9 6 -9 20 0 34 -16 65 -49 92 -32 27 -38 28 -77 4z"/>
<path d="M1390 881 c0 -28 8 -43 45 -77 75 -72 153 -78 219 -16 17 16 42 37
56 47 18 13 19 15 5 10 -76 -29 -98 -35 -108 -28 -8 4 -7 1 1 -9 11 -14 10
-18 -7 -27 -30 -16 -62 -13 -106 10 -46 25 -72 52 -91 94 l-13 30 -1 -34z"/>
<path d="M395 878 c1 -13 10 -40 19 -60 9 -20 12 -39 8 -42 -4 -3 -14 15 -21
40 -10 32 -18 44 -32 44 -10 0 -18 -3 -18 -7 1 -5 1 -20 0 -34 -1 -23 -7 -27
-66 -39 -36 -7 -65 -17 -65 -21 0 -13 68 -50 103 -56 30 -4 40 0 76 32 23 21
44 35 48 31 12 -12 -17 -56 -49 -76 -48 -29 -101 -26 -165 11 -68 39 -80 31
-18 -13 56 -39 98 -50 145 -37 51 14 79 42 101 100 19 48 19 53 3 78 -22 34
-55 71 -65 71 -4 0 -6 -10 -4 -22z m-5 -85 c0 -20 -5 -33 -13 -33 -8 0 -11 14
-8 46 4 53 21 42 21 -13z"/>
<path d="M2040 826 c29 -32 80 -62 80 -46 0 5 -5 10 -11 10 -6 0 -30 14 -53
32 -39 30 -40 31 -16 4z"/>
<path d="M1705 810 c-36 -39 -108 -80 -142 -80 -41 0 -100 24 -130 52 -13 12
-23 17 -23 11 0 -12 37 -47 67 -62 12 -6 46 -11 75 -11 43 0 64 6 101 30 26
17 52 30 57 30 6 0 10 4 10 9 0 5 9 13 20 16 11 4 18 11 15 16 -10 15 -31 10
-50 -11z"/>
<path d="M2140 824 c0 -15 37 -50 49 -46 7 2 17 -1 21 -8 11 -18 121 -25 164
-10 53 17 39 23 -23 8 -39 -9 -54 -9 -63 0 -9 9 -9 12 3 13 25 1 -24 18 -56
18 -16 1 -43 8 -59 16 -31 17 -36 18 -36 9z"/>
<path d="M1890 811 c0 -6 5 -13 10 -16 6 -3 10 1 10 9 0 9 -4 16 -10 16 -5 0
-10 -4 -10 -9z"/>
<path d="M2052 756 c39 -38 114 -64 131 -47 6 6 -5 13 -34 21 -24 6 -64 23
-89 36 l-45 24 37 -34z"/>
<path d="M1710 725 c-20 -25 -111 -53 -155 -47 -31 3 -37 1 -29 -8 23 -24 89
-24 133 1 23 12 41 27 41 32 0 6 17 7 40 3 41 -6 50 0 28 22 -16 16 -43 15
-58 -3z"/>
</g>
</svg>
